<svg width="127" height="23" viewBox="0 0 127 23" fill="none" xmlns="http://www.w3.org/2000/svg">
<path d="M5.96397 12.3487V22.0115H1.58229V12.3487H0V8.95206H1.58229V6.37536C1.58229 4.91148 1.73452 3.24249 3.10372 1.83714C3.98611 0.929058 5.23369 0.34375 6.90735 0.34375C7.88097 0.34375 8.672 0.519344 9.40252 0.782732V4.47225C8.91571 4.17935 8.27655 3.9745 7.72875 3.9745C7.05946 3.9745 6.63339 4.26739 6.45079 4.50151C5.96397 5.11657 5.96397 6.14136 5.96397 6.75605V8.95218H9.4329V12.3488H5.96397V12.3487Z" fill="white"/>
<path d="M21.9873 20.3413C20.9645 21.5125 19.2259 22.4499 17.0012 22.4499C14.7768 22.4499 13.038 21.5126 12.0152 20.3413C10.8647 19.0235 10.3021 17.1495 10.3021 15.4809C10.3021 13.8118 10.8647 11.9379 12.0152 10.6201C13.038 9.44883 14.7768 8.51196 17.0012 8.51196C19.2259 8.51196 20.9645 9.4487 21.9873 10.6201C23.138 11.9379 23.7004 13.8119 23.7004 15.4809C23.7004 17.1497 23.138 19.0236 21.9873 20.3413ZM14.9303 13.021C14.3933 13.636 14.0865 14.4264 14.0865 15.4808C14.0865 16.6813 14.4955 17.4424 14.9303 17.9402C15.3904 18.4672 16.0553 18.8773 17.0268 18.8773C17.8451 18.8773 18.5356 18.5551 19.0726 17.9402C19.6093 17.3251 19.9162 16.5348 19.9162 15.4808C19.9162 14.4264 19.6093 13.636 19.0726 13.021C18.5356 12.4063 17.8451 12.0843 17.0014 12.0843C16.1576 12.0843 15.4671 12.4063 14.9304 13.021H14.9303Z" fill="white"/>
<path d="M29.9398 14.8956L25.414 8.95142H30.1187L32.241 11.9675L34.3633 8.95142H39.068L34.5423 14.8956L40.1162 22.0109H35.3603L32.241 17.7943L29.1216 22.0109H24.3657L29.9398 14.8956Z" fill="white"/>
<path d="M41.599 8.95229H45.2808V10.475C46.2269 8.83548 47.6076 8.63013 48.477 8.63013C48.9629 8.63013 49.8578 8.68891 50.6249 9.21605C51.2129 9.59662 51.6988 10.2409 52.0055 11.0316C52.2869 10.5042 52.7215 9.88952 53.4631 9.36237C54.2557 8.80584 54.9972 8.63013 55.8921 8.63013C57.273 8.63013 58.3979 9.09874 59.0883 9.86037C60.1878 11.0609 60.2646 12.8175 60.2646 13.7547V22.0117H56.5826V15.3942C56.5826 14.7208 56.5826 13.5494 56.0966 12.8467C55.7898 12.4077 55.3043 12.1439 54.7672 12.1439C54.1534 12.1439 53.6419 12.4661 53.3352 12.9347C52.8493 13.6374 52.7727 14.6622 52.7727 15.5114V22.0116H49.0909V15.2184C49.0909 14.3399 49.0653 13.315 48.5028 12.6708C48.1193 12.2319 47.659 12.1438 47.2755 12.1438C46.7895 12.1438 46.3551 12.2904 45.997 12.6708C45.3066 13.4323 45.281 14.8962 45.281 15.3356V22.0116H41.5992V8.95217L41.599 8.95229Z" fill="white"/>
<path d="M65.2512 0.929688C66.453 0.929688 67.3991 2.01336 67.3991 3.38957C67.3991 4.76565 66.453 5.84896 65.2512 5.84896C64.0495 5.84896 63.1035 4.76565 63.1035 3.38957C63.1035 2.01336 64.0495 0.929688 65.2512 0.929688ZM67.3991 9.20365V22.2631L63.4104 22.0121V8.95268L67.3991 9.20365Z" fill="white"/>
<path d="M70.2108 8.95153H73.8926V10.5034C75.0178 8.86385 76.3474 8.6001 77.4211 8.6001C78.4184 8.6001 79.7225 8.80508 80.6939 9.9179C81.768 11.1477 81.8445 12.6994 81.8445 13.754V22.011H78.1627V15.3059C78.1627 14.4567 78.1374 13.373 77.5492 12.6996C77.2678 12.3774 76.8076 12.114 76.1429 12.114C75.3757 12.114 74.8897 12.4655 74.6086 12.8168C73.9948 13.5196 73.8926 14.4567 73.8926 15.3059V22.011H70.2108V8.95153Z" fill="white"/>
<path d="M97.1354 22.0117H93.4536V20.4307C92.8911 21.3674 91.8682 22.4511 89.8487 22.4511C88.1607 22.4511 86.9337 21.836 85.9365 20.6647C84.7603 19.3176 84.1467 17.4438 84.1467 15.4232C84.1467 13.2567 84.8368 11.4703 85.9365 10.2698C86.9337 9.18652 88.3399 8.51306 89.8998 8.51306C91.1526 8.51306 92.5333 8.98167 93.4537 10.4163V0.665771H97.1355V22.0115L97.1354 22.0117ZM88.8256 13.0225C88.2886 13.6083 87.9307 14.4575 87.9307 15.5115C87.9307 16.4779 88.2886 17.3266 88.8256 17.9125C89.388 18.5276 90.1042 18.8201 90.7435 18.8201C91.4334 18.8201 92.2519 18.4979 92.84 17.8541C93.2748 17.3855 93.6838 16.5948 93.6838 15.5116C93.6838 14.3987 93.3001 13.6376 92.8653 13.1105C92.2776 12.4078 91.5871 12.1442 90.7946 12.1442C90.053 12.1442 89.4137 12.3783 88.8256 13.0226V13.0225Z" fill="white"/>
<path d="M111.891 16.213H103.376C103.376 16.9158 103.606 17.8529 104.066 18.4384C104.629 19.1412 105.396 19.2583 105.958 19.2583C106.495 19.2583 107.058 19.141 107.441 18.8777C107.493 18.848 107.927 18.5263 108.234 17.794L111.711 18.2042C111.2 20.0485 110.177 21.0149 109.513 21.4836C108.413 22.2446 107.186 22.45 105.907 22.45C104.194 22.45 102.685 22.0986 101.356 20.5759C100.359 19.4338 99.6429 17.7063 99.6429 15.5393C99.6429 13.6654 100.231 11.733 101.382 10.3859C102.762 8.80461 104.475 8.51196 105.754 8.51196C107.032 8.51196 108.873 8.77534 110.279 10.4736C111.635 12.1134 111.891 14.1631 111.891 15.7733V16.2128V16.213ZM108.49 13.6947C108.464 13.5774 108.285 12.758 107.748 12.1721C107.339 11.7331 106.751 11.4402 106.009 11.4402C105.063 11.4402 104.501 11.8796 104.143 12.2894C103.862 12.6407 103.606 13.1092 103.503 13.6947H108.49Z" fill="white"/>
<path d="M126.618 22.0117H122.936V20.4307C122.373 21.3674 121.351 22.4511 119.331 22.4511C117.643 22.4511 116.416 21.836 115.419 20.6647C114.242 19.3176 113.629 17.4438 113.629 15.4232C113.629 13.2567 114.319 11.4703 115.419 10.2698C116.416 9.18652 117.822 8.51306 119.382 8.51306C120.635 8.51306 122.016 8.98167 122.936 10.4163V0.665771H126.618V22.0115L126.618 22.0117ZM118.308 13.0225C117.771 13.6083 117.413 14.4575 117.413 15.5115C117.413 16.4779 117.771 17.3266 118.308 17.9125C118.87 18.5276 119.586 18.8201 120.226 18.8201C120.916 18.8201 121.734 18.4979 122.322 17.8541C122.757 17.3855 123.166 16.5948 123.166 15.5116C123.166 14.3987 122.782 13.6376 122.348 13.1105C121.76 12.4078 121.069 12.1442 120.277 12.1442C119.535 12.1442 118.896 12.3783 118.308 13.0226V13.0225Z" fill="white"/>
</svg>