<svg width="218" height="27" viewBox="0 0 218 27" fill="none" xmlns="http://www.w3.org/2000/svg">
<path fill-rule="evenodd" clip-rule="evenodd" d="M79.7803 0.541016C76.2429 0.541016 75.7989 0.556483 74.4096 0.619709C73.0229 0.683207 72.0764 0.902735 71.2482 1.22484C70.3916 1.55752 69.6649 2.00255 68.9409 2.7268C68.2164 3.45078 67.7713 4.17748 67.4376 5.03388C67.1147 5.86233 66.8949 6.8091 66.8325 8.19519C66.7703 9.58454 66.754 10.0288 66.754 13.5662C66.754 17.1036 66.7698 17.5462 66.8327 18.9355C66.8965 20.3222 67.116 21.2687 67.4378 22.0968C67.7708 22.9535 68.2158 23.6802 68.9401 24.4042C69.6638 25.1287 70.3905 25.5748 71.2466 25.9075C72.0753 26.2296 73.0221 26.4491 74.4085 26.5126C75.7978 26.5759 76.2415 26.5913 79.7786 26.5913C83.3163 26.5913 83.7589 26.5759 85.1483 26.5126C86.5349 26.4491 87.4825 26.2296 88.3112 25.9075C89.1676 25.5748 89.8932 25.1287 90.6169 24.4042C91.3415 23.6802 91.7865 22.9535 92.1202 22.0971C92.4404 21.2686 92.6602 20.3219 92.7254 18.9358C92.7878 17.5464 92.8041 17.1036 92.8041 13.5662C92.8041 10.0288 92.7878 9.58481 92.7254 8.19546C92.6602 6.80883 92.4404 5.86233 92.1202 5.03415C91.7865 4.17748 91.3415 3.45078 90.6169 2.7268C89.8924 2.00228 89.1679 1.55725 88.3104 1.22484C87.48 0.902735 86.533 0.683207 85.1464 0.619709C83.757 0.556483 83.3147 0.541016 79.7762 0.541016H79.7803ZM78.6121 2.88746C78.9589 2.88692 79.3458 2.88746 79.7805 2.88746C83.2583 2.88746 83.6705 2.89994 85.0438 2.96236C86.3137 3.02043 87.003 3.23263 87.4621 3.41091C88.07 3.64699 88.5033 3.9292 88.9589 4.38508C89.4148 4.84096 89.697 5.27513 89.9336 5.88297C90.1119 6.34157 90.3244 7.03082 90.3822 8.30077C90.4446 9.67384 90.4582 10.0863 90.4582 13.5624C90.4582 17.0385 90.4446 17.4509 90.3822 18.824C90.3241 20.094 90.1119 20.7832 89.9336 21.2418C89.6976 21.8496 89.4148 22.2825 88.9589 22.7381C88.5031 23.1939 88.0702 23.4762 87.4621 23.7122C87.0035 23.8913 86.3137 24.103 85.0438 24.1611C83.6707 24.2235 83.2583 24.237 79.7805 24.237C76.3026 24.237 75.8904 24.2235 74.5173 24.1611C73.2473 24.1024 72.5581 23.8902 72.0987 23.712C71.4908 23.4759 71.0567 23.1937 70.6008 22.7378C70.1449 22.2819 69.8627 21.8488 69.6261 21.2407C69.4478 20.7821 69.2353 20.0929 69.1775 18.8229C69.1151 17.4499 69.1026 17.0374 69.1026 13.5591C69.1026 10.0809 69.1151 9.67058 69.1775 8.29751C69.2356 7.02756 69.4478 6.33831 69.6261 5.87918C69.8622 5.27134 70.1449 4.83716 70.6008 4.38128C71.0567 3.9254 71.4908 3.64319 72.0987 3.40657C72.5578 3.22747 73.2473 3.01581 74.5173 2.95747C75.7189 2.9032 76.1845 2.88692 78.6121 2.8842V2.88746ZM86.7335 5.04986C85.8705 5.04986 85.1704 5.74915 85.1704 6.61233C85.1704 7.47525 85.8705 8.17535 86.7335 8.17535C87.5964 8.17535 88.2965 7.47525 88.2965 6.61233C88.2965 5.74942 87.5964 5.04932 86.7335 5.04932V5.04986ZM79.7804 6.87844C76.0864 6.87844 73.0914 9.87341 73.0914 13.5674C73.0914 17.2614 76.0864 20.255 79.7804 20.255C83.4744 20.255 86.4683 17.2614 86.4683 13.5674C86.4683 9.87341 83.4741 6.87844 79.7801 6.87844H79.7804ZM79.7802 9.22603C82.1779 9.22603 84.1219 11.1698 84.1219 13.5677C84.1219 15.9655 82.1779 17.9095 79.7802 17.9095C77.3822 17.9095 75.4385 15.9655 75.4385 13.5677C75.4385 11.1698 77.3822 9.22603 79.7802 9.22603Z" fill="white"/>
<path fill-rule="evenodd" clip-rule="evenodd" d="M201.783 7.47081L201.851 8.59756L200.713 8.45959C196.567 7.9307 192.946 6.1371 189.871 3.12477L188.367 1.63011L187.98 2.73386C187.16 5.19431 187.684 7.79273 189.392 9.54035C190.303 10.5061 190.098 10.6441 188.527 10.0692C187.98 9.88527 187.502 9.7473 187.456 9.81628C187.297 9.97725 187.844 12.0698 188.276 12.8976C188.869 14.0473 190.076 15.1741 191.397 15.8409L192.513 16.3698L191.192 16.3928C189.916 16.3928 189.871 16.4158 190.007 16.8987C190.463 18.3934 192.262 19.98 194.267 20.6699L195.679 21.1528L194.449 21.8886C192.627 22.9464 190.486 23.5442 188.345 23.5902C187.32 23.6132 186.477 23.7052 186.477 23.7742C186.477 24.0041 189.256 25.2918 190.873 25.7977C195.724 27.2924 201.487 26.6485 205.815 24.0961C208.89 22.2795 211.964 18.6693 213.399 15.1741C214.174 13.3115 214.948 9.90826 214.948 8.27563C214.948 7.21786 215.017 7.07989 216.292 5.81517C217.044 5.07934 217.75 4.27452 217.887 4.04457C218.114 3.60767 218.091 3.60767 216.93 3.99858C214.994 4.68842 214.72 4.59645 215.677 3.56168C216.383 2.82584 217.226 1.49214 217.226 1.10122C217.226 1.03224 216.884 1.14721 216.497 1.35417C216.087 1.58412 215.176 1.92904 214.493 2.13599L213.263 2.52691L212.147 1.76807C211.532 1.35417 210.666 0.894269 210.211 0.7563C209.049 0.434371 207.272 0.480361 206.225 0.848279C203.378 1.88305 201.578 4.55046 201.783 7.47081Z" fill="white"/>
<path fill-rule="evenodd" clip-rule="evenodd" d="M32.282 1.31874C33.8415 1.74668 35.0697 3.0076 35.4865 4.60886C36.2439 7.51094 36.2439 13.5662 36.2439 13.5662C36.2439 13.5662 36.2439 19.6212 35.4865 22.5235C35.0697 24.1247 33.8415 25.3857 32.282 25.8138C29.4558 26.5913 18.122 26.5913 18.122 26.5913C18.122 26.5913 6.78811 26.5913 3.96171 25.8138C2.40219 25.3857 1.17401 24.1247 0.757209 22.5235C0 19.6212 0 13.5662 0 13.5662C0 13.5662 0 7.51094 0.757209 4.60886C1.17401 3.0076 2.40219 1.74668 3.96171 1.31874C6.78811 0.541016 18.122 0.541016 18.122 0.541016C18.122 0.541016 29.4558 0.541016 32.282 1.31874ZM14.7246 8.4686V19.7948L23.7856 14.1319L14.7246 8.4686Z" fill="white"/>
<path fill-rule="evenodd" clip-rule="evenodd" d="M141.591 26.5913V13.5646H145.186L145.663 9.07558H141.591L141.597 6.82876C141.597 5.65794 141.708 5.03059 143.389 5.03059H145.638V0.541016H142.041C137.721 0.541016 136.201 2.7187 136.201 6.38087V9.07609H133.508V13.5652H136.201V26.5913H141.591Z" fill="white"/>
</svg>