<svg width="113" height="113" viewBox="0 0 113 113" fill="none" xmlns="http://www.w3.org/2000/svg">
<g opacity="0.5">
<path d="M102.406 56.5H84.75V42.375C84.75 34.5842 91.0842 28.25 98.875 28.25H100.641C103.576 28.25 105.938 25.8885 105.938 22.9531V12.3594C105.938 9.42402 103.576 7.0625 100.641 7.0625H98.875C79.3648 7.0625 63.5625 22.8648 63.5625 42.375V95.3438C63.5625 101.192 68.3076 105.938 74.1562 105.938H102.406C108.255 105.938 113 101.192 113 95.3438V67.0938C113 61.2451 108.255 56.5 102.406 56.5ZM38.8438 56.5H21.1875V42.375C21.1875 34.5842 27.5217 28.25 35.3125 28.25H37.0781C40.0135 28.25 42.375 25.8885 42.375 22.9531V12.3594C42.375 9.42402 40.0135 7.0625 37.0781 7.0625H35.3125C15.8023 7.0625 0 22.8648 0 42.375V95.3438C0 101.192 4.74512 105.938 10.5938 105.938H38.8438C44.6924 105.938 49.4375 101.192 49.4375 95.3438V67.0938C49.4375 61.2451 44.6924 56.5 38.8438 56.5Z" fill="#878787"/>
</g>
</svg>